HIERARCHY
ROOT Hips
{
	OFFSET 0.00000 0.00000 0.00000
	CHANNELS 6 Xposition Yposition Zposition Zrotation Yrotation Xrotation 
	JOINT LHipJoint
	{
		OFFSET 0 0 0
		CHANNELS 3 Zrotation Yrotation Xrotation
		JOINT LeftUpLeg
		{
			OFFSET 1.62329 -1.80800 0.67318
			CHANNELS 3 Zrotation Yrotation Xrotation
			JOINT LeftLeg
			{
				OFFSET 2.57139 -7.06484 0.00000
				CHANNELS 3 Zrotation Yrotation Xrotation
				JOINT LeftFoot
				{
					OFFSET 2.52017 -6.92413 0.00000
					CHANNELS 3 Zrotation Yrotation Xrotation
					JOINT LeftToeBase
					{
						OFFSET 0.23295 -0.64001 2.10214
						CHANNELS 3 Zrotation Yrotation Xrotation
						End Site
						{
							OFFSET 0.00000 -0.00000 1.10139
						}
					}
				}
			}
		}
	}
	JOINT RHipJoint
	{
		OFFSET 0 0 0
		CHANNELS 3 Zrotation Yrotation Xrotation
		JOINT RightUpLeg
		{
			OFFSET -1.48061 -1.80800 0.67318
			CHANNELS 3 Zrotation Yrotation Xrotation
			JOINT RightLeg
			{
				OFFSET -2.63258 -7.23296 0.00000
				CHANNELS 3 Zrotation Yrotation Xrotation
				JOINT RightFoot
				{
					OFFSET -2.54779 -7.00000 0.00000
					CHANNELS 3 Zrotation Yrotation Xrotation
					JOINT RightToeBase
					{
						OFFSET -0.23067 -0.63376 2.12161
						CHANNELS 3 Zrotation Yrotation Xrotation
						End Site
						{
							OFFSET -0.00000 -0.00000 1.11000
						}
					}
				}
			}
		}
	}
	JOINT LowerBack
	{
		OFFSET 0 0 0
		CHANNELS 3 Zrotation Yrotation Xrotation
		JOINT Spine
		{
			OFFSET -0.02108 2.07573 -0.16981
			CHANNELS 3 Zrotation Yrotation Xrotation
			JOINT Spine1
			{
				OFFSET 0.05070 2.08439 -0.03141
				CHANNELS 3 Zrotation Yrotation Xrotation
				JOINT Neck
				{
					OFFSET 0 0 0
					CHANNELS 3 Zrotation Yrotation Xrotation
					JOINT Neck1
					{
						OFFSET -0.10731 1.60408 0.31370
						CHANNELS 3 Zrotation Yrotation Xrotation
						JOINT Head
						{
							OFFSET 0.08411 1.65679 -0.30822
							CHANNELS 3 Zrotation Yrotation Xrotation
							End Site
							{
								OFFSET 0.03911 1.69149 -0.14146
							}
						}
					}
				}
				JOINT LeftShoulder
				{
					OFFSET 0 0 0
					CHANNELS 3 Zrotation Yrotation Xrotation
					JOINT LeftArm
					{
						OFFSET 3.52315 0.73219 -0.54694
						CHANNELS 3 Zrotation Yrotation Xrotation
						JOINT LeftForeArm
						{
							OFFSET 5.32462 -0.00000 -0.00000
							CHANNELS 3 Zrotation Yrotation Xrotation
							JOINT LeftHand
							{
								OFFSET 3.48402 -0.00000 -0.00000
								CHANNELS 3 Zrotation Yrotation Xrotation
								JOINT LeftFingerBase
								{
									OFFSET 0 0 0
									CHANNELS 3 Zrotation Yrotation Xrotation
									JOINT LeftHandIndex1
									{
										OFFSET 0.57248 -0.00000 -0.00000
										CHANNELS 3 Zrotation Yrotation Xrotation
										End Site
										{
											OFFSET 0.46154 -0.00000 -0.00000
										}
									}
								}
								JOINT LThumb
								{
									OFFSET 0 0 0
									CHANNELS 3 Zrotation Yrotation Xrotation
									End Site
									{
										OFFSET 0.46859 -0.00000 0.46859
									}
								}
							}
						}
					}
				}
				JOINT RightShoulder
				{
					OFFSET 0 0 0
					CHANNELS 3 Zrotation Yrotation Xrotation
					JOINT RightArm
					{
						OFFSET -3.41766 0.93592 -0.10019
						CHANNELS 3 Zrotation Yrotation Xrotation
						JOINT RightForeArm
						{
							OFFSET -5.33589 -0.00000 -0.00000
							CHANNELS 3 Zrotation Yrotation Xrotation
							JOINT RightHand
							{
								OFFSET -3.64134 -0.00000 -0.00000
								CHANNELS 3 Zrotation Yrotation Xrotation
								JOINT RightFingerBase
								{
									OFFSET 0 0 0
									CHANNELS 3 Zrotation Yrotation Xrotation
									JOINT RightHandIndex1
									{
										OFFSET -0.73481 -0.00000 -0.00000
										CHANNELS 3 Zrotation Yrotation Xrotation
										End Site
										{
											OFFSET -0.59242 -0.00000 -0.00000
										}
									}
								}
								JOINT RThumb
								{
									OFFSET 0 0 0
									CHANNELS 3 Zrotation Yrotation Xrotation
									End Site
									{
										OFFSET -0.60147 -0.00000 0.60147
									}
								}
							}
						}
					}
				}
			}
		}
	}
}
MOTION
Frames: 6
Frame Time: 0.0289855
0.00 0.00 0.00 0 0 0 0 0 0 -21 0 0 0 0 0 0 0 0 0 0 0 0 0 0 21 0 0 0 0 0 0 0 0 0 0 0 0 0 0 0 0 0 0 0 0 0 0 -16 0 0 21 0 0 11 0 0 0 -8 0 0 0 0 0 0 0 0 0 0 0 0 0 0 0 0 0 0 0 0 8 0 0 0 0 0 0 0 0 0 0 0 0 0 0 0 0 0
0.00 0.00 0.00 177.1530 1.7903 -175.5660 0.0000 0.0000 0.0000 -28.0542 0.1706 -10.1050 1.5130 7.7681 22.0118 0.5448 -8.8414 -13.6422 0.0002 0.0844 0.2319 0.0000 0.0000 0.0000 12.8897 11.7542 -20.8541 -6.5493 -14.9403 47.1485 -1.1368 1.7348 -19.6525 -0.0080 0.5769 -1.5853 -6.7836 -0.0427 1.4493 0.6295 -0.1526 0.1430 4.4616 -0.0539 -0.6465 -7.2181 -2.3553 -20.1065 2.3405 1.4028 36.6302 2.8781 0.8847 16.5790 -0.0000 0.0000 0.0000 -89.2629 0.2860 21.5582 15.1307 -24.3278 -3.2796 -0.0000 -0.0000 9.8342 14.6578 24.6217 6.2191 -7.1250 0.0000 -0.0000 -15.7092 54.6333 -3.7878 -0.0000 0.0000 0.0000 86.3072 -4.8187 18.0596 -18.0992 28.2841 -4.5962 0.0000 0.0000 21.4687 -17.9310 4.0168 -1.2985 7.1250 -0.0000 -0.0000 6.5706 -25.7521 3.0824
0.00 0.00 0.00 176.8920 -6.7066 -171.6680 0.0000 0.0000 0.0000 -22.4717 -8.6944 -7.0699 4.1104 12.3059 36.8230 0.0021 -8.0403 -5.6791 1.7245 -8.2669 -23.5277 0.0000 0.0000 0.0000 17.2967 8.3095 -29.5517 -3.1731 -10.9701 32.1793 -0.3586 -0.9157 -11.6808 -0.5210 -4.6261 12.8451 -2.2043 -0.0544 5.4085 2.3109 -0.2140 0.8681 3.6403 -0.1134 -2.1228 -9.9403 -1.3978 -18.5551 2.6415 -2.6412 36.2028 2.1075 -3.1007 16.2260 -0.0000 -0.0000 0.0000 -89.6987 -1.0788 22.0439 17.2154 -27.1409 -4.1851 -0.0000 -0.0000 9.3695 14.0039 23.9683 5.7851 -7.1250 0.0000 -0.0000 -16.0298 53.8761 -3.5686 -0.0000 -0.0000 0.0000 71.0314 14.5965 28.7162 -34.9725 44.7925 -14.7940 0.0000 0.0000 6.3938 -28.2234 5.2961 -2.8362 7.1250 -0.0000 -0.0000 -1.1413 -23.9741 -0.5792
0.00 0.00 0.00 177.6940 -8.4939 -172.2240 0.0000 0.0000 0.0000 -18.8787 -9.7211 -17.0724 8.1871 16.2552 53.2339 -0.0401 -7.9254 -4.6600 1.0141 -6.4071 -17.9702 0.0000 0.0000 0.0000 19.8013 6.2596 -25.7834 -2.5676 -9.9598 28.8465 -0.3767 -0.9615 -11.9824 -0.6950 -5.3291 14.8497 -0.8631 0.6494 5.9148 2.6070 0.7711 1.1636 3.1157 0.3520 -2.1656 -10.4833 -2.0530 -18.5574 2.8284 -3.4622 36.3169 2.1333 -3.4619 16.3842 -0.0000 -0.0000 0.0000 -89.3475 -1.2465 24.7492 21.1446 -31.9968 -6.1264 -0.0000 -0.0000 6.1333 14.1887 23.6802 5.7982 -7.1250 0.0000 -0.0000 -15.7042 53.6301 -3.3978 -0.0000 -0.0000 0.0000 66.4135 21.5858 27.1068 -39.1924 47.5841 -17.8407 0.0000 0.0000 4.9450 -30.7360 4.4475 -2.6400 7.1250 -0.0000 -0.0000 -3.0599 -24.8091 -1.4956
0.00 0.00 0.00 177.2060 -10.6388 -172.8030 0.0000 0.0000 0.0000 -16.8282 -10.4234 -30.2876 13.2705 18.8777 69.9636 0.3613 -5.2837 -10.7667 0.7924 -5.6824 -15.8655 0.0000 0.0000 0.0000 20.6939 5.3318 -21.6694 -2.0038 -8.8739 25.4017 -0.4142 -3.0584 -13.6657 -0.8235 -5.7899 16.1760 -0.5976 1.3614 6.7888 2.3747 1.7263 1.3692 2.6350 0.8237 -2.4839 -10.8712 -2.9232 -17.8458 2.9923 -4.6450 35.7144 2.0651 -3.9097 16.0452 -0.0000 -0.0000 0.0000 -89.1264 -1.9198 25.8345 24.6693 -35.8641 -8.0954 -0.0000 -0.0000 5.4836 14.6658 22.5175 5.7233 -7.1250 0.0000 -0.0000 -14.6894 52.5797 -2.7888 -0.0000 -0.0000 0.0000 59.7028 32.2293 22.2453 -39.3894 47.7039 -17.9863 0.0000 0.0000 1.1843 -30.9120 0.6849 -0.4101 7.1250 -0.0000 -0.0000 -3.3969 -29.1742 -1.3122
0.00 0.00 0.00 177.1200 -14.8614 -173.5970 0.0000 0.0000 0.0000 -15.0847 -13.8674 -48.7466 18.7367 19.9617 86.3041 0.6319 -9.0800 -14.6010 1.0106 -6.3963 -17.9388 0.0000 0.0000 0.0000 22.1739 2.5205 -16.7785 -1.2910 -7.1992 20.3069 -0.4132 -5.4921 -15.4023 -0.8792 -5.9775 16.7191 1.0017 2.1068 8.0867 2.1939 2.8070 1.8467 1.4172 1.3314 -2.6804 -11.0387 -4.0869 -17.1936 2.9993 -6.2853 35.3069 1.8084 -4.5384 15.8627 -0.0000 0.0000 0.0000 -88.9561 -3.2755 27.7934 28.5424 -39.6108 -10.4677 -0.0000 -0.0000 0.9755 11.1090 27.7390 5.2219 -7.1250 0.0000 -0.0000 -21.1166 56.8929 -6.3483 -0.0000 0.0000 0.0000 45.7739 41.8758 11.6926 -35.8924 45.4390 -15.4458 0.0000 -0.0000 -3.6465 -33.2397 0.2595 -0.1701 7.1250 -0.0000 -0.0000 -5.2404 -29.6500 -1.9692
